<?xml version="1.0" standalone="no"?>
<!DOCTYPE svg PUBLIC "-//W3C//DTD SVG 20010904//EN"
 "http://www.w3.org/TR/2001/REC-SVG-20010904/DTD/svg10.dtd">
<svg version="1.0" xmlns="http://www.w3.org/2000/svg"
 width="512.000000pt" height="512.000000pt" viewBox="0 0 512.000000 512.000000"
 preserveAspectRatio="xMidYMid meet">
<metadata>
Created by potrace 1.11, written by Peter Selinger 2001-2013
</metadata>
<g transform="translate(0.000000,512.000000) scale(0.100000,-0.100000)"
fill="#000000" stroke="none">
<path d="M2410 4984 c-130 -11 -245 -27 -335 -45 -467 -94 -888 -321 -1230
-664 -390 -389 -625 -870 -696 -1425 -16 -122 -16 -458 0 -580 71 -555 306
-1036 696 -1425 389 -390 870 -625 1425 -696 122 -16 458 -16 580 0 555 71
1036 306 1425 696 390 389 625 870 696 1425 7 52 13 183 13 290 0 107 -6 238
-13 290 -71 555 -306 1036 -696 1425 -386 387 -877 628 -1415 695 -93 11 -378
20 -450 14z m-295 -1567 c242 -248 442 -452 445 -452 3 0 203 204 445 452
l440 453 383 0 c214 0 382 -4 380 -9 -1 -5 -284 -298 -628 -651 -344 -354
-625 -646 -625 -650 0 -4 281 -296 625 -650 344 -353 627 -646 628 -651 2 -5
-163 -9 -380 -9 l-383 0 -440 453 c-242 248 -442 452 -445 452 -3 0 -46 -43
-97 -95 l-92 -96 339 -349 c187 -193 340 -353 340 -357 0 -5 -85 -8 -188 -8
l-189 0 -249 257 -249 256 -250 -256 -250 -257 -383 0 c-214 0 -382 4 -380 9
2 5 284 298 628 651 344 354 625 646 625 650 0 4 -281 296 -625 650 -344 353
-626 646 -628 651 -2 5 166 9 380 9 l383 0 440 -453z"/>
</g>
</svg>
